<svg width="28" height="28" viewBox="0 0 28 28" fill="none" xmlns="http://www.w3.org/2000/svg">
<g opacity="0.64">
<g clip-path="url(#clip0_4596_1662)">
<rect width="28" height="28" rx="14" fill="white"/>
<path fill-rule="evenodd" clip-rule="evenodd" d="M14 0C16.7689 0 19.4757 0.821086 21.778 2.35943C24.0803 3.89776 25.8747 6.08426 26.9343 8.64243C27.9939 11.2006 28.2712 14.0155 27.731 16.7313C27.1908 19.447 25.8574 21.9416 23.8995 23.8995C21.9416 25.8574 19.447 27.1908 16.7313 27.731C14.0155 28.2712 11.2006 27.9939 8.64243 26.9343C6.08426 25.8747 3.89776 24.0803 2.35943 21.778C0.821086 19.4757 0 16.7689 0 14C0 10.287 1.475 6.72601 4.1005 4.1005C6.72601 1.475 10.287 0 14 0ZM7.00228 8.65885L14.1276 14.4626L20.943 8.65885H7.00228ZM6.54655 18.432L11.6211 13.3415L6.54199 9.20345V18.4274L6.54655 18.432ZM12.1748 13.7972L6.94531 19.0381H21.0114L16.012 13.7972L14.3555 15.2008C14.2913 15.2538 14.2108 15.2828 14.1276 15.2828C14.0444 15.2828 13.9639 15.2538 13.8997 15.2008L12.1702 13.7904L12.1748 13.7972ZM16.5589 13.3415L21.458 18.4775V9.15788L16.5589 13.3324V13.3415Z" fill="#52212E"/>
</g>
</g>
<defs>
<clipPath id="clip0_4596_1662">
<rect width="28" height="28" rx="14" fill="white"/>
</clipPath>
</defs>
</svg>
