<svg width="28" height="28" viewBox="0 0 28 28" fill="none" xmlns="http://www.w3.org/2000/svg">
<g opacity="0.64">
<rect width="28" height="28" rx="14" fill="#52212E"/>
<path d="M8.96681 18.4567C9.6826 17.9255 10.4624 17.5061 11.3061 17.1984C12.1498 16.8907 13.0478 16.7369 14 16.7369C14.9522 16.7369 15.8502 16.8907 16.6939 17.1984C17.5376 17.5061 18.3174 17.9255 19.0332 18.4567C19.5568 17.8813 19.9717 17.2151 20.2777 16.4583C20.5838 15.7015 20.7369 14.8821 20.7369 14C20.7369 12.1333 20.0807 10.5439 18.7684 9.23157C17.4562 7.91928 15.8667 7.26314 14 7.26314C12.1333 7.26314 10.5439 7.91928 9.23157 9.23157C7.91928 10.5439 7.26314 12.1333 7.26314 14C7.26314 14.8821 7.41618 15.7015 7.72226 16.4583C8.02834 17.2151 8.44319 17.8813 8.96681 18.4567ZM14 14.6316C13.2313 14.6316 12.583 14.3676 12.0551 13.8397C11.5271 13.3117 11.2632 12.6634 11.2632 11.8947C11.2632 11.126 11.5271 10.4777 12.0551 9.9498C12.583 9.42187 13.2313 9.1579 14 9.1579C14.7687 9.1579 15.417 9.42187 15.9449 9.9498C16.4729 10.4777 16.7368 11.126 16.7368 11.8947C16.7368 12.6634 16.4729 13.3117 15.9449 13.8397C15.417 14.3676 14.7687 14.6316 14 14.6316ZM14 22C12.8891 22 11.847 21.7911 10.8737 21.3733C9.90042 20.9555 9.05372 20.3865 8.33361 19.6664C7.61351 18.9463 7.04455 18.0996 6.62674 17.1263C6.20891 16.153 6 15.1109 6 14C6 12.8891 6.20891 11.847 6.62674 10.8737C7.04455 9.90042 7.61351 9.05372 8.33361 8.33361C9.05372 7.61351 9.90042 7.04455 10.8737 6.62674C11.847 6.20891 12.8891 6 14 6C15.1109 6 16.153 6.20891 17.1263 6.62674C18.0996 7.04455 18.9463 7.61351 19.6664 8.33361C20.3865 9.05372 20.9555 9.90042 21.3733 10.8737C21.7911 11.847 22 12.8891 22 14C22 15.1109 21.7911 16.153 21.3733 17.1263C20.9555 18.0996 20.3865 18.9463 19.6664 19.6664C18.9463 20.3865 18.0996 20.9555 17.1263 21.3733C16.153 21.7911 15.1109 22 14 22Z" fill="white"/>
</g>
</svg>
