<svg width="180" height="44" viewBox="0 0 180 44" fill="none" xmlns="http://www.w3.org/2000/svg">
<g filter="url(#filter0_d_2524_5830)">
<path d="M84.7478 8.43204C85.152 6.90547 86.5882 5.34085 88.2908 5.62619C89.6033 5.84495 89.9362 6.99583 89.6224 8.17999C89.2181 9.70656 87.7819 11.2712 86.0746 10.9858C84.7858 10.7671 84.4529 9.6162 84.7478 8.43204ZM100.442 30.584C100.357 32.0636 100.763 33.5298 101.597 34.7547C101.34 35.2303 101.122 35.3825 100.803 35.3825C100.484 35.3825 99.1955 34.2934 98.8056 33.7037C97.4264 31.5874 96.7511 30.4699 97.084 26.7034C97.5073 21.8763 100.356 17.2681 100.508 15.8129C100.546 15.4324 100.427 15.2564 100.147 15.2564C96.637 15.2564 92.3569 26.1565 91.5389 29.1287C90.7495 29.3713 89.5891 29.8231 88.6855 29.8231C87.7819 29.8231 87.2588 29.4426 87.4015 28.1253C87.4913 27.372 87.6505 26.6285 87.877 25.9044C86.0128 27.9065 83.2069 30.0656 81.143 30.0656C79.4405 30.0656 78.3276 29.0622 78.4893 27.5356C78.581 26.8587 78.7224 26.1895 78.9126 25.5335C76.5775 28.1348 73.9048 30.0656 72.0882 30.0656C70.3856 30.0656 69.9671 28.4344 70.1859 26.2611L70.2335 25.7855C68.5832 28.2822 66.7951 30.0656 64.8167 30.0656C62.2059 30.0656 61.2595 28.3203 61.3784 25.9567V25.9234C59.5332 27.878 56.8082 30.0989 54.6776 30.0989C52.9751 30.0989 51.8623 29.0955 52.024 27.5689C52.1048 26.7699 54.0118 22.5564 55.9189 18.1907C53.8644 19.3939 51.0586 21.0441 50.4594 21.9382C50.3579 22.1031 50.2467 22.2619 50.1265 22.4137C48.1291 26.1565 44.8001 29.6138 41.4045 29.6138C40.3963 29.6138 39.6449 29.1383 39.3929 27.8828C37.9662 31.5922 36.6774 35.9674 36.7297 38.5688C35.6819 38.9116 34.5887 39.0959 33.4863 39.1157C32.5828 39.1157 31.8932 38.7019 32.0596 37.3133C32.1595 36.3621 33.7717 30.7599 35.5788 25.7142C33.0108 28.092 30.1764 30.0656 28.2741 30.0656C26.5668 30.0656 26.1483 28.4344 26.3719 26.2611L26.4242 25.7855C24.7692 28.2822 22.9811 30.0656 21.0027 30.0656C18.3918 30.0656 17.4454 28.3203 17.5643 25.9567C15.1532 28.2157 12.2142 30.3557 9.29897 30.3557C4.23893 30.3082 2.44129 26.2516 2.95014 21.2581C3.80617 13.2115 11.3534 2.76327 20.6936 3.06764C24.4981 3.19128 26.2435 5.94482 25.5016 7.73771C24.6503 9.79216 22.8431 10.71 21.4735 10.5245C20.1039 10.3391 19.3572 8.80774 20.0183 7.40481C20.5604 6.23967 21.1787 5.58339 22.9573 5.08404C22.3234 4.57717 21.5337 4.30499 20.7221 4.31362C15.4909 4.14242 9.20386 15.1518 8.44295 22.3852C8.09579 25.7142 8.85194 28.092 11.2536 28.092C13.4364 28.092 15.9379 26.1897 17.7831 24.2161C18.5453 21.1921 20.0772 18.4167 22.2297 16.16C22.2297 16.16 22.8907 15.4895 22.9525 15.4324C23.4344 14.9908 23.9392 14.5749 24.4648 14.1864C25.6252 13.3447 27.965 11.937 30.8755 12.2841C31.6857 12.3395 32.4661 12.6122 33.1344 13.0736C34.0428 13.7536 33.9809 14.5954 33.7669 14.9759C33.5529 15.3563 32.7112 15.2136 32.7112 15.2136C32.6802 14.9739 32.5969 14.744 32.467 14.5401C32.3371 14.3363 32.164 14.1636 31.9598 14.0342C31.3035 13.5587 30.086 13.2258 27.9174 14.7C27.0098 15.3547 26.2351 16.1762 25.6347 17.1207C24.0321 19.6887 22.6624 23.655 22.4199 25.9615C22.3057 27.0695 22.4199 27.7972 22.9573 27.7972C23.9084 27.7972 25.7108 26.0994 26.8522 23.517C26.9045 23.3173 27.8033 20.7778 28.3312 19.5984C29.2823 17.444 29.9434 17.0398 31.4509 16.745C32.0029 16.631 32.5623 16.5563 33.1249 16.5215C33.6623 16.4882 33.7622 16.8496 33.5434 17.3537L32.9109 18.8517C31.8076 21.7051 30.7756 24.6727 30.1526 26.7081C30.1101 26.8434 30.1098 26.9885 30.1518 27.124C30.1937 27.2595 30.2758 27.3791 30.3873 27.4668C30.4987 27.5545 30.6342 27.6063 30.7758 27.6152C30.9174 27.624 31.0583 27.5897 31.1798 27.5166C33.0647 26.3391 34.8046 24.944 36.3635 23.3601C37.7379 19.1894 39.041 16.8353 39.5356 15.4324C39.4024 14.9331 38.456 14.9996 37.5429 16.179C37.435 16.1221 37.3395 16.0443 37.2619 15.9502C37.1842 15.856 37.1261 15.7475 37.0907 15.6307C37.0553 15.5139 37.0434 15.3913 37.0557 15.2699C37.0681 15.1485 37.1044 15.0308 37.1625 14.9235C37.7046 14.077 39.5403 12.9642 41.4426 13.0736C42.8693 13.1544 44.0487 13.7632 43.906 15.1185C43.8345 15.6574 43.7216 16.1901 43.5684 16.7117C45.9462 13.7632 48.1053 12.9071 49.6699 12.9071C51.653 12.9071 52.3188 14.505 52.0906 16.7117C52.003 17.4779 51.8438 18.2342 51.615 18.9706C53.0702 17.9149 55.3672 17.0113 56.694 16.4929C57.0983 15.5418 57.6024 14.3671 58.0066 13.3922C58.0318 13.323 58.0406 13.2489 58.0323 13.1757C58.024 13.1025 57.9988 13.0322 57.9587 12.9704C57.9186 12.9086 57.8646 12.857 57.8011 12.8196C57.7377 12.7822 57.6664 12.7601 57.5929 12.755H55.2626C55.0533 12.755 54.9677 12.5124 55.0058 12.2366C55.0388 12.0426 55.1343 11.8648 55.2776 11.73C55.421 11.5953 55.6044 11.511 55.8 11.4899C57.7498 11.2094 58.2967 11.566 59.771 10.4912C61.1579 9.42175 62.4014 8.17823 63.4709 6.79133C63.7752 6.37283 64.0701 5.74984 64.5599 5.74984C64.7692 5.74984 65.3969 5.84971 65.1972 6.33479C64.9309 7.06241 64.5124 8.14194 64.0463 9.35464C63.5803 10.5673 63.138 11.4757 63.7467 11.4757H65.4445C65.8297 11.4757 65.9724 11.6802 65.9201 11.9227C65.8481 12.179 65.6891 12.4023 65.4704 12.5542C65.2517 12.706 64.987 12.777 64.7216 12.755H63.2949C63.108 12.7568 62.9257 12.8138 62.7709 12.9186C62.6161 13.0235 62.4957 13.1717 62.4246 13.3447C60.5889 17.7484 57.8021 23.6455 56.7178 26.5274C56.6637 26.6655 56.6547 26.8172 56.6919 26.9608C56.7292 27.1044 56.8109 27.2326 56.9253 27.327C57.0398 27.4214 57.1811 27.4772 57.3292 27.4865C57.4773 27.4958 57.6245 27.458 57.7498 27.3787C59.2008 26.3541 60.53 25.167 61.7113 23.8404C62.5133 20.9765 64.002 18.3515 66.0485 16.1933L66.7761 15.4657C67.2579 15.0241 67.7627 14.6082 68.2884 14.2197C70.1046 12.8302 72.3802 12.181 74.6562 12.403C75.4661 12.4602 76.246 12.7327 76.9152 13.1925C77.8188 13.8725 77.7332 14.7333 77.5905 15.0044C77.3908 15.3801 76.4016 15.2184 76.4016 15.2184C76.3736 14.9728 76.2907 14.7367 76.1589 14.5276C76.0272 14.3185 75.8501 14.1417 75.6407 14.0105C74.9844 13.5349 73.9048 13.2258 71.7363 14.7C70.8423 15.3584 70.0807 16.1797 69.4916 17.1207C67.8889 19.6887 66.5193 23.655 66.2767 25.9615C66.1626 27.0695 66.2767 27.7972 66.8141 27.7972C67.7653 27.7972 69.5677 26.0994 70.709 23.517C70.7613 23.3173 71.6602 20.7778 72.188 19.5984C73.1392 17.444 73.8002 17.0398 75.303 16.745C75.8992 16.6253 76.5031 16.5474 77.1102 16.5119C77.5572 16.5119 77.6333 16.8115 77.4383 17.2633C77.2433 17.7151 77.0198 18.2382 76.7582 18.8565C75.7025 21.6005 74.699 24.4587 74.076 26.4656C74.0288 26.611 74.0302 26.7678 74.0801 26.9123C74.1299 27.0569 74.2254 27.1813 74.3522 27.2667C74.479 27.3521 74.6302 27.3939 74.7828 27.3858C74.9355 27.3777 75.0814 27.3201 75.1984 27.2217C76.8798 25.879 78.4292 24.3789 79.8257 22.7419C80.5723 20.6589 81.571 18.2145 82.3034 16.4786C82.5603 15.8949 82.7209 15.2733 82.7789 14.6382C82.7304 14.2317 82.6231 13.8344 82.4603 13.4588C82.682 13.3415 82.9213 13.2612 83.1689 13.221C83.7497 13.1893 84.3322 13.2373 84.9 13.3637C86.0033 13.5444 87.3824 14.2102 86.8688 16.4929C86.3933 18.4855 84.2627 23.3458 83.1594 26.5369C83.1111 26.6771 83.1083 26.8289 83.1514 26.9707C83.1945 27.1125 83.2813 27.2371 83.3994 27.3268C83.5174 27.4164 83.6608 27.4664 83.809 27.4698C83.9572 27.4731 84.1027 27.4296 84.2247 27.3454C85.9342 26.1544 87.4941 24.7621 88.871 23.1984C90.0884 20.1072 91.634 16.4929 92.295 14.077C92.7373 12.4506 92.4377 10.3438 90.8303 9.51634C90.9016 9.16917 91.0586 8.92188 91.6102 8.95517C93.541 9.0693 96.247 12.1129 95.7619 15.6464C95.7051 16.5326 95.5193 17.4057 95.2103 18.2382C97.7926 14.4955 100.584 12.7597 102.672 12.7597C104.574 12.7597 105.397 13.6252 105.259 14.9806C104.812 19.0229 100.817 25.8616 100.442 30.584ZM39.6307 15.3278C39.5689 15.4609 39.5689 15.4895 39.6307 15.3278V15.3278ZM47.1018 15.4324C46.1507 15.0091 43.4542 18.4095 41.8991 21.3389C41.0613 22.9018 40.4222 24.5633 39.9969 26.2849C40.0085 26.7986 40.1544 27.3003 40.4201 27.7401C40.4856 27.8896 40.5915 28.0178 40.726 28.1102C40.8604 28.2026 41.018 28.2556 41.181 28.2632C43.6825 28.2632 47.1161 20.0787 47.4633 16.783C47.5584 16.0459 47.4015 15.5608 47.1018 15.4324ZM175.667 36.1434C175.629 36.3526 175.462 36.5143 175.082 36.4905C174.897 36.4843 174.714 36.449 174.54 36.3859C170.008 35.021 169.066 32.3769 168.695 29.3618C168.253 25.8331 169.009 22.0143 166.241 20.3545C164.787 23.1449 163.615 26.073 162.741 29.0955C161.759 29.4449 160.729 29.6391 159.688 29.6709C158.784 29.6709 158.095 29.2572 158.261 27.9018C158.344 27.3386 158.475 26.7834 158.651 26.2421C157.679 27.2044 156.576 28.0242 155.374 28.677C153.915 29.4903 152.287 29.9542 150.619 30.0323C147.394 30.0323 146.044 27.9874 146.02 25.3955C144.484 27.4928 142.529 29.8992 139.576 30.0656C137.869 30.1607 137.45 28.4344 137.674 26.2611L137.726 25.7855C136.071 28.2822 134.283 30.0656 132.305 30.0656C129.694 30.0656 128.747 28.3203 128.866 25.9567C128.896 25.3981 128.972 24.8429 129.094 24.297C129.463 22.5978 130.121 20.9747 131.04 19.4985C130.004 19.3016 128.951 19.2076 127.896 19.2179C124.695 27.9446 120.13 38.7257 111.489 39.1157C108.383 39.2583 105.121 36.7378 105.563 32.5195C106.362 24.9105 113.929 18.8612 123.159 18.1717C124.282 15.0852 125.651 12.0321 127.168 10.3105C128.695 8.76791 130.402 7.41541 132.252 6.28247C125.875 7.48091 118.646 5.66899 118.038 9.73985C117.752 11.6421 119.255 13.5444 120.991 14.3671C120.823 14.7137 120.565 15.0084 120.243 15.2203C119.922 15.4321 119.549 15.553 119.165 15.5703C116.435 15.5703 116.026 12.6646 116.354 10.4627C117.086 5.60241 121.409 3.3292 126.208 3.3292C128.552 3.3292 135.272 4.69883 137.997 3.47187C138.729 3.14373 138.72 3.91415 138.672 4.22802C138.535 5.17916 137.246 5.47877 135.981 6.04469C133.37 7.15752 132.267 9.37366 131.701 10.4247C130.409 12.9022 129.297 15.4689 128.372 18.1051C129.447 18.1574 130.51 18.3673 131.525 18.7281C132.117 17.817 132.792 16.9622 133.541 16.1743C133.541 16.1743 134.202 15.5037 134.264 15.4467C134.746 15.0051 135.251 14.5891 135.776 14.2007C137.592 12.8111 139.868 12.1619 142.144 12.384C142.954 12.4412 143.734 12.7137 144.403 13.1735C145.307 13.8535 145.221 14.7143 145.078 14.9854C144.879 15.3611 143.913 15.1994 143.913 15.1994C143.886 14.9542 143.804 14.7184 143.673 14.5093C143.542 14.3002 143.366 14.1232 143.157 13.9914C142.501 13.5159 141.393 13.2067 139.224 14.681C138.306 15.339 137.523 16.1672 136.918 17.1207C135.315 19.6887 133.945 23.655 133.703 25.9615C133.589 27.0695 133.703 27.7972 134.24 27.7972C135.191 27.7972 136.994 26.0994 138.135 23.517C138.187 23.3173 139.086 20.7778 139.614 19.5984C140.565 17.444 141.226 17.0398 142.734 16.745C143.434 16.5953 144.148 16.5157 144.864 16.5072C145.083 16.5072 145.131 16.6499 145.04 16.8639C144.864 17.2681 144.565 18.0052 144.184 18.8565C143.152 21.5387 142.173 24.335 141.545 26.3514C141.497 26.5015 141.5 26.6634 141.554 26.8114C141.609 26.9593 141.711 27.085 141.844 27.1685C141.978 27.252 142.136 27.2885 142.293 27.2723C142.449 27.2561 142.596 27.1881 142.71 27.0791C144.012 25.8107 145.208 24.4381 146.286 22.9749C147.551 18.2573 152.069 12.8834 157.286 12.8834C159.131 12.8834 161.286 14.3101 160.382 16.3217C159.479 18.3334 158.071 19.0087 156.73 18.828C155.598 18.6758 154.923 17.9386 155.241 16.607C155.56 15.2755 156.421 14.5146 157.4 13.7822C157.223 13.7271 157.038 13.7045 156.853 13.7156C154.59 13.7156 151.475 20.2023 151.032 24.4301C150.818 26.4751 151.218 27.9684 152.645 27.9684C154.38 27.9684 157.909 25.4003 159.502 23.6407C161.642 17.8293 165.143 10.9097 165.423 8.22279C165.718 5.41219 164.838 3.07715 161.923 2.04041C161.852 2.02391 161.785 1.99203 161.727 1.94699C161.669 1.90196 161.622 1.84486 161.588 1.77966C161.555 1.71447 161.536 1.64275 161.533 1.56951C161.53 1.49627 161.543 1.42327 161.571 1.35559C161.611 1.21219 161.699 1.08679 161.82 1.00026C161.941 0.913739 162.088 0.871305 162.237 0.880026C166.041 0.880026 170.612 4.47532 169.622 8.63654C169.056 11.0144 168.419 12.4886 166.598 17.2396C168.3 14.6049 170.64 12.1129 173.584 12.0368C175.22 11.9988 177.331 13.4635 176.518 15.2802C175.738 17.0065 174.426 17.7104 173.075 17.62C171.929 17.5439 171.092 16.8829 171.334 15.7177C171.577 14.5526 172.385 13.8155 173.365 13.0926C171.415 13.0926 168.961 15.6226 167.183 18.6044C167.339 18.5734 167.499 18.5623 167.658 18.5711C172.994 18.847 172.414 24.7535 172.837 29.5663C173.099 32.4482 174.078 34.36 175.6 35.7772C175.71 35.8723 175.686 36.0435 175.667 36.1434ZM122.727 19.3463C114.062 20.0359 108.46 27.003 107.913 32.3103C107.589 35.43 109.663 37.9743 112.236 37.9743C117.419 37.9743 121.367 23.227 122.727 19.3463Z" fill="white"/>
<path d="M162.237 0.875584C166.042 0.875584 170.612 4.47088 169.623 8.63209C169.057 11.0099 168.42 12.4842 166.598 17.2351C168.301 14.6005 170.641 12.1085 173.584 12.0324H173.646C175.273 12.0324 177.322 13.4972 176.499 15.2758C175.762 16.907 174.55 17.6251 173.285 17.6251H173.056C171.91 17.549 171.073 16.8879 171.316 15.7228C171.558 14.5577 172.367 13.8205 173.346 13.0977C171.397 13.0977 168.943 15.6277 167.164 18.6095C167.286 18.5858 167.411 18.573 167.535 18.5715H167.654C172.99 18.8473 172.41 24.7538 172.833 29.5666C173.094 32.4485 174.074 34.3603 175.596 35.7775C175.686 35.8583 175.663 36.0296 175.643 36.1294C175.61 36.3244 175.463 36.4766 175.135 36.4766H175.106C174.921 36.4704 174.738 36.4351 174.564 36.372C170.032 35.0071 169.09 32.3629 168.719 29.3478C168.277 25.8191 169.033 22.0003 166.265 20.3406C164.803 23.1346 163.622 26.0675 162.741 29.0958C161.76 29.4452 160.73 29.6394 159.688 29.6712C158.785 29.6712 158.095 29.2575 158.261 27.9021C158.345 27.3389 158.475 26.7837 158.651 26.2424C157.68 27.2048 156.577 28.0245 155.375 28.6773C153.916 29.4906 152.288 29.9546 150.619 30.0326C147.39 30.0326 146.044 27.9877 146.02 25.3959C144.484 27.4931 142.53 29.8995 139.576 30.0659H139.439C137.845 30.0659 137.455 28.3729 137.679 26.2614L137.731 25.7858C136.076 28.2826 134.288 30.0659 132.31 30.0659C129.699 30.0659 128.753 28.3206 128.871 25.957C128.901 25.3984 128.977 24.8432 129.1 24.2973C129.467 22.5985 130.123 20.9754 131.04 19.4988C130.004 19.3019 128.951 19.208 127.896 19.2182C124.696 27.9449 120.13 38.726 111.489 39.116H111.247C108.217 39.116 105.136 36.5955 105.564 32.5103C106.363 24.9013 113.929 18.852 123.16 18.1625C124.282 15.076 125.652 12.0229 127.169 10.3013C128.695 8.75871 130.402 7.40621 132.253 6.27328C125.875 7.47171 118.647 5.65979 118.038 9.73065C117.753 11.6329 119.255 13.5352 120.991 14.3579C120.824 14.7045 120.565 14.9993 120.244 15.2111C119.922 15.4229 119.55 15.5438 119.165 15.5611C116.435 15.5611 116.026 12.6554 116.354 10.4535C117.087 5.60748 121.405 3.32951 126.194 3.32951C127.811 3.32951 131.52 3.98104 134.559 3.98104C135.731 4.04861 136.905 3.88209 138.012 3.49121C138.109 3.44203 138.216 3.41445 138.326 3.41036C138.739 3.41036 138.725 3.99055 138.687 4.24736C138.549 5.19849 137.26 5.4981 135.995 6.06403C133.385 7.17686 132.281 9.393 131.715 10.444C130.424 12.9215 129.311 15.4882 128.386 18.1244C129.462 18.1767 130.524 18.3866 131.539 18.7474C132.132 17.8363 132.807 16.9815 133.556 16.1936C133.556 16.1936 134.217 15.5231 134.279 15.466C134.76 15.0244 135.265 14.6085 135.791 14.22C137.338 13.0611 139.208 12.4128 141.141 12.3653C141.467 12.3659 141.792 12.385 142.116 12.4224C142.926 12.4795 143.706 12.7521 144.375 13.2118C145.278 13.8919 145.193 14.7527 145.05 15.0237C144.941 15.2235 144.608 15.271 144.327 15.271C144.179 15.2705 144.032 15.2594 143.885 15.2377C143.858 14.9926 143.775 14.7567 143.645 14.5477C143.514 14.3386 143.337 14.1616 143.129 14.0298C142.779 13.7689 142.353 13.6302 141.916 13.6351C141.265 13.6351 140.394 13.9061 139.196 14.7194C138.292 15.3689 137.519 16.1838 136.918 17.121C135.315 19.689 133.946 23.6553 133.703 25.9618C133.589 27.0699 133.703 27.7975 134.241 27.7975C135.192 27.7975 136.994 26.0997 138.135 23.5174C138.188 23.3176 139.087 20.7781 139.614 19.5987C140.566 17.4444 141.227 17.0401 142.734 16.7453C143.407 16.6025 144.092 16.5229 144.779 16.5075H144.865C145.083 16.5075 145.131 16.6502 145.041 16.8642C144.865 17.2684 144.565 18.0055 144.185 18.8568C143.153 21.539 142.173 24.3353 141.545 26.3517C141.505 26.4595 141.491 26.5756 141.506 26.6898C141.521 26.804 141.564 26.9128 141.63 27.0067C141.697 27.1006 141.786 27.1767 141.889 27.2283C141.991 27.28 142.105 27.3056 142.221 27.3029C142.398 27.2971 142.568 27.2259 142.696 27.1031C143.998 25.8348 145.194 24.4622 146.272 22.999C147.537 18.2814 152.055 12.9074 157.272 12.9074C159.118 12.9074 161.272 14.3341 160.368 16.3458C159.565 18.1482 158.338 18.8806 157.125 18.8806C156.988 18.8804 156.851 18.8708 156.716 18.852C155.584 18.6999 154.909 17.9627 155.227 16.6311C155.546 15.2996 156.407 14.5386 157.386 13.8063C157.21 13.7512 157.024 13.7286 156.84 13.7397C154.576 13.7397 151.461 20.2264 151.019 24.4542C150.805 26.4992 151.204 27.9925 152.631 27.9925C154.367 27.9925 157.895 25.4244 159.488 23.6648C161.629 17.8533 165.129 10.9338 165.409 8.24688C165.704 5.43628 164.824 3.10124 161.909 2.0645C161.838 2.048 161.771 2.01612 161.713 1.97109C161.655 1.92605 161.608 1.86895 161.574 1.80375C161.541 1.73856 161.522 1.66684 161.519 1.5936C161.516 1.52036 161.529 1.44736 161.557 1.37969C161.597 1.23628 161.685 1.11088 161.806 1.02436C161.927 0.937832 162.074 0.895398 162.223 0.904118M122.727 19.3466C114.062 20.0362 108.46 27.0033 107.913 32.3106C107.59 35.4303 109.663 37.9746 112.236 37.9746C117.42 37.9746 121.381 23.232 122.727 19.3466ZM20.2993 3.0632H20.694C24.4986 3.18684 26.2439 5.94038 25.502 7.73327C24.7221 9.61176 23.1242 10.5439 21.8306 10.5439C21.7113 10.5434 21.5922 10.5355 21.4739 10.5201C20.1043 10.3299 19.3577 8.8033 20.0187 7.40037C20.5609 6.23523 21.1791 5.57895 22.9577 5.0796C22.3238 4.57273 21.5342 4.30055 20.7225 4.30918H20.6037C15.4152 4.30918 9.19003 15.2092 8.44339 22.3808C8.09622 25.7097 8.85238 28.0876 11.254 28.0876C13.4368 28.0876 15.9383 26.1853 17.7835 24.2117C18.5458 21.1876 20.0776 18.4123 22.2301 16.1556C22.2301 16.1556 22.8911 15.485 22.953 15.428C23.4348 14.9863 23.9396 14.5704 24.4653 14.182C26.0431 12.976 27.9588 12.2942 29.9438 12.2321C30.2617 12.2317 30.5794 12.2508 30.8949 12.2892C31.7052 12.3445 32.4855 12.6173 33.1539 13.0787C34.0622 13.7587 34.0004 14.6005 33.7864 14.9809C33.658 15.1949 33.3108 15.2425 33.054 15.2425C32.9458 15.2426 32.8377 15.2346 32.7306 15.2187C32.6982 14.9765 32.6122 14.7446 32.479 14.5397C32.3457 14.3349 32.1685 14.1623 31.9602 14.0345C31.5891 13.7643 31.14 13.6224 30.6809 13.6303C30.0009 13.6303 29.102 13.8966 27.9179 14.7003C27.0102 15.355 26.2355 16.1765 25.6352 17.121C24.0325 19.689 22.6629 23.6553 22.4203 25.9618C22.3062 27.0699 22.4203 27.7975 22.9577 27.7975C23.9088 27.7975 25.7113 26.0997 26.8526 23.5174C26.9049 23.3176 27.8037 20.7781 28.3316 19.5987C29.2828 17.4444 29.9438 17.0401 31.4514 16.7453C32.0034 16.6313 32.5628 16.5566 33.1253 16.5218H33.1872C33.6627 16.5218 33.7531 16.8737 33.5439 17.3588L32.9113 18.852C31.808 21.7055 30.776 24.673 30.1531 26.7084C30.1202 26.813 30.1125 26.9239 30.1304 27.032C30.1483 27.1401 30.1914 27.2425 30.2562 27.331C30.3211 27.4194 30.4057 27.4913 30.5035 27.5409C30.6012 27.5906 30.7092 27.6166 30.8188 27.6168C30.9457 27.6137 31.0699 27.5794 31.1803 27.5169C33.0652 26.3394 34.805 24.9443 36.364 23.3604C37.7384 19.1897 39.0414 16.8356 39.536 15.4327C39.5069 15.3396 39.4465 15.2593 39.365 15.2056C39.2836 15.1519 39.1861 15.1279 39.089 15.1379C38.699 15.1379 38.1378 15.4375 37.5434 16.1794C37.4355 16.1224 37.3399 16.0446 37.2623 15.9505C37.1847 15.8564 37.1265 15.7478 37.0911 15.631C37.0557 15.5142 37.0439 15.3916 37.0562 15.2702C37.0685 15.1489 37.1048 15.0311 37.1629 14.9239C37.6765 14.1154 39.3933 13.0644 41.1815 13.0644H41.4383C42.865 13.1452 44.0444 13.754 43.9017 15.1093C43.8302 15.6482 43.7173 16.1809 43.5641 16.7025C45.9419 13.754 48.101 12.8979 49.6656 12.8979C51.6487 12.8979 52.3145 14.4958 52.0862 16.7025C51.9987 17.4687 51.8395 18.225 51.6107 18.9614C53.0659 17.9057 55.3629 17.0021 56.6897 16.4837C57.094 15.5326 57.5981 14.3579 58.0023 13.383C58.0275 13.3138 58.0363 13.2397 58.028 13.1665C58.0197 13.0933 57.9945 13.023 57.9543 12.9612C57.9142 12.8994 57.8603 12.8478 57.7968 12.8104C57.7333 12.773 57.662 12.7509 57.5886 12.7458H55.263C55.0538 12.7458 54.9682 12.5032 55.0062 12.2274C55.0393 12.0334 55.1347 11.8556 55.2781 11.7208C55.4214 11.5861 55.6048 11.5018 55.8004 11.4807C57.7502 11.2002 58.2971 11.5568 59.7714 10.4821C61.1583 9.41255 62.4018 8.16903 63.4713 6.78214C63.7757 6.36364 64.0705 5.74064 64.5604 5.74064C64.7696 5.74064 65.3974 5.84051 65.1976 6.32559C64.9313 7.05321 64.5128 8.13275 64.0468 9.34545C63.5807 10.5581 63.1384 11.4665 63.7472 11.4665H65.4449C65.8301 11.4665 65.9728 11.671 65.9205 11.9135C65.8485 12.1698 65.6895 12.3931 65.4708 12.545C65.2521 12.6968 64.9874 12.7678 64.7221 12.7458H63.2954C63.1084 12.7476 62.9261 12.8046 62.7713 12.9094C62.6166 13.0143 62.4961 13.1625 62.4251 13.3355C60.5894 17.7392 57.8026 23.6363 56.7183 26.5182C56.6606 26.6566 56.649 26.8099 56.6851 26.9554C56.7212 27.1009 56.8031 27.2309 56.9187 27.3263C57.0344 27.4217 57.1777 27.4774 57.3274 27.4852C57.4771 27.493 57.6253 27.4524 57.7502 27.3695C59.2013 26.3449 60.5304 25.1578 61.7117 23.8312C62.5137 20.9673 64.0025 18.3423 66.0489 16.1841L66.7765 15.4565C67.2584 15.0149 67.7632 14.599 68.2888 14.2105C69.8584 13.04 71.7572 12.3943 73.7151 12.3653C74.0329 12.3668 74.3504 12.3858 74.6662 12.4224C75.4761 12.4795 76.256 12.7521 76.9251 13.2118C77.8287 13.8919 77.7431 14.7527 77.6004 15.0237C77.4911 15.2235 77.1249 15.271 76.8633 15.271C76.7121 15.2708 76.5611 15.2597 76.4115 15.2377C76.3836 14.9922 76.3006 14.7561 76.1689 14.5469C76.0372 14.3378 75.86 14.1611 75.6506 14.0298C75.3061 13.7687 74.8844 13.6298 74.4522 13.6351C73.8102 13.6351 72.9446 13.9061 71.7462 14.7194C70.8506 15.3712 70.0859 16.1859 69.492 17.121C67.8894 19.689 66.5197 23.6553 66.2772 25.9618C66.163 27.0699 66.2772 27.7975 66.8146 27.7975C67.7657 27.7975 69.5681 26.0997 70.7095 23.5174C70.7618 23.3176 71.6606 20.7781 72.1885 19.5987C73.1396 17.4444 73.8007 17.0401 75.3035 16.7453C75.8997 16.6256 76.5035 16.5478 77.1106 16.5123H77.1391C77.5576 16.5123 77.6147 16.8261 77.434 17.2636C77.2533 17.7012 77.0155 18.2386 76.7539 18.8568C75.6982 21.6008 74.6947 24.459 74.0717 26.4659C74.0332 26.5735 74.0219 26.689 74.0387 26.8021C74.0555 26.9152 74.1001 27.0224 74.1683 27.1141C74.2365 27.2059 74.3263 27.2794 74.4298 27.3281C74.5332 27.3768 74.6471 27.3991 74.7613 27.3932C74.9249 27.3912 75.0834 27.3361 75.2131 27.2363C76.8945 25.8936 78.4439 24.3935 79.8404 22.7565C80.587 20.6735 81.5857 18.229 82.3181 16.4932C82.575 15.9095 82.7356 15.2879 82.7936 14.6528C82.7451 14.2463 82.6378 13.849 82.475 13.4734C82.6967 13.3561 82.9361 13.2758 83.1836 13.2356C83.3025 13.2356 83.4261 13.2356 83.5498 13.2356C84.0089 13.2423 84.4661 13.2949 84.9147 13.3925C86.018 13.5732 87.3971 14.239 86.8835 16.5218C86.408 18.5144 84.2774 23.3747 83.1741 26.5658C83.1341 26.6724 83.1205 26.7872 83.1346 26.9002C83.1488 27.0133 83.1901 27.1212 83.2551 27.2147C83.3201 27.3083 83.4069 27.3846 83.5079 27.4373C83.6089 27.4899 83.7212 27.5172 83.8351 27.5169C83.9785 27.5169 84.1182 27.472 84.2346 27.3885C85.9465 26.1988 87.5082 24.8064 88.8857 23.2415C90.1031 20.1503 91.6487 16.536 92.3098 14.1201C92.752 12.4937 92.4524 10.3869 90.845 9.55945C90.8495 9.47609 90.8712 9.39457 90.9088 9.32003C90.9464 9.24549 90.999 9.17955 91.0634 9.12637C91.1277 9.07319 91.2024 9.03393 91.2827 9.01107C91.363 8.9882 91.4471 8.98223 91.5298 8.99353H91.6249C93.5557 9.10766 96.2617 12.1513 95.7766 15.6848C95.7116 16.5588 95.521 17.4189 95.2107 18.2386C97.7931 14.4958 100.585 12.76 102.672 12.76C104.575 12.76 105.397 13.6256 105.259 14.9809C104.812 19.0232 100.818 25.8619 100.442 30.5843C100.357 32.0639 100.763 33.5301 101.598 34.755C101.341 35.2306 101.122 35.3828 100.803 35.3828C100.485 35.3828 99.196 34.2937 98.806 33.704C97.4269 31.5878 96.7516 30.4702 97.0845 26.7037C97.5077 21.8767 100.356 17.2684 100.509 15.8132C100.547 15.4327 100.428 15.2568 100.147 15.2568C96.6374 15.2568 92.3573 26.1568 91.5393 29.1291C90.7499 29.3716 89.5895 29.8234 88.6859 29.8234C87.7823 29.8234 87.2592 29.4429 87.4019 28.1256C87.4918 27.3723 87.651 26.6288 87.8775 25.9047C86.0132 27.9069 83.2074 30.0659 81.1434 30.0659C79.4409 30.0659 78.3281 29.0625 78.4898 27.5359C78.5814 26.859 78.7229 26.1898 78.913 25.5338C76.578 28.1351 73.9053 30.0659 72.0886 30.0659C70.3861 30.0659 69.9676 28.4347 70.1863 26.2614L70.2339 25.7858C68.5837 28.2826 66.7955 30.0659 64.8172 30.0659C62.2063 30.0659 61.2599 28.3206 61.3788 25.957V25.9237C59.5336 27.8783 56.8086 30.0992 54.6781 30.0992C52.9755 30.0992 51.8627 29.0958 52.0244 27.5692C52.1053 26.7702 54.0123 22.5567 55.9193 18.191C53.8649 19.3942 51.059 21.0444 50.4598 21.9385C50.3583 22.1034 50.2472 22.2622 50.1269 22.414C48.1295 26.1568 44.8005 29.6141 41.405 29.6141C40.3968 29.6141 39.6454 29.1386 39.3933 27.8831C37.9666 31.5925 36.6778 35.9677 36.7302 38.5691C35.6823 38.9119 34.5891 39.0963 33.4868 39.116C32.5832 39.116 31.8936 38.7022 32.0601 37.3136C32.1599 36.3624 33.7721 30.7603 35.5793 25.7145C33.0112 28.0923 30.1768 30.0659 28.2746 30.0659C26.5673 30.0659 26.1488 28.4347 26.3723 26.2614L26.4246 25.7858C24.7696 28.2826 22.9815 30.0659 21.0031 30.0659C18.3923 30.0659 17.4459 28.3206 17.5648 25.957C15.1536 28.216 12.2146 30.356 9.29941 30.356C4.23937 30.3085 2.44172 26.2519 2.95058 21.2584C3.79709 13.3164 11.1399 3.0632 20.2993 3.0632ZM39.6311 15.3281C39.626 15.3644 39.626 15.4012 39.6311 15.4375C39.6311 15.4375 39.6311 15.4042 39.6692 15.3281M41.2385 28.2635C43.74 28.2635 47.1736 20.079 47.5208 16.7833C47.5969 16.0462 47.4399 15.5611 47.1403 15.4327C47.0841 15.4056 47.022 15.3925 46.9596 15.3947C45.8801 15.3947 43.4071 18.5762 41.9376 21.3393C41.0998 22.9021 40.4607 24.5637 40.0354 26.2852C40.047 26.7989 40.1929 27.3006 40.4586 27.7404C40.5241 27.8899 40.63 28.0181 40.7644 28.1105C40.8989 28.2029 41.0565 28.2559 41.2195 28.2635M87.925 5.59322C88.0605 5.59249 88.1957 5.60363 88.3293 5.62651C89.6418 5.84527 89.9747 6.99614 89.6608 8.1803C89.2851 9.58323 88.0439 11.0337 86.5173 11.0337C86.3819 11.0341 86.2467 11.023 86.1131 11.0004C84.8053 10.7817 84.4724 9.63079 84.7863 8.44662C85.1572 7.01992 86.4032 5.59322 87.925 5.59322ZM162.237 0.000539487C161.909 -0.00817186 161.587 0.0888134 161.318 0.277191C161.049 0.465568 160.848 0.735365 160.744 1.04679C160.674 1.22287 160.642 1.4116 160.649 1.60087C160.657 1.79013 160.703 1.97578 160.787 2.1459C160.87 2.31603 160.988 2.46689 161.133 2.58881C161.278 2.71074 161.447 2.80104 161.629 2.85395C163.883 3.65766 164.839 5.38397 164.553 8.12799C164.392 9.64505 162.998 12.917 161.519 16.3791C160.568 18.6285 159.565 20.9588 158.742 23.1702C157.101 24.9155 153.924 27.0889 152.645 27.0889C152.565 27.098 152.483 27.0881 152.407 27.06C152.331 27.0319 152.263 26.9864 152.208 26.9272C152.089 26.7988 151.732 26.2424 151.903 24.5208C152.233 22.0219 153.04 19.6098 154.281 17.4158C154.303 17.8457 154.441 18.2615 154.68 18.619C154.904 18.9225 155.188 19.1752 155.516 19.3605C155.844 19.5457 156.208 19.6593 156.583 19.6938C156.756 19.7166 156.931 19.7277 157.106 19.7271C158.813 19.7271 160.287 18.6143 161.148 16.6739C161.367 16.2231 161.465 15.7234 161.433 15.2235C161.401 14.7235 161.241 14.2402 160.967 13.8205C160.539 13.2422 159.978 12.7748 159.332 12.4571C158.686 12.1395 157.973 11.9808 157.253 11.9944C154.638 11.9944 151.936 13.2499 149.644 15.5278C147.677 17.4931 146.231 19.9191 145.44 22.5853C144.546 23.7814 143.575 24.9187 142.534 25.9903C143.172 24.0024 144.061 21.5057 144.96 19.1707C145.307 18.3527 145.626 17.6156 145.802 17.2113C145.887 17.039 145.927 16.848 145.919 16.6559C145.911 16.4639 145.854 16.2771 145.754 16.1128C145.673 15.9908 145.568 15.8872 145.445 15.8084C145.584 15.7075 145.698 15.5756 145.778 15.4232C146.111 14.805 146.149 13.4686 144.855 12.4985C144.064 11.9469 143.139 11.6184 142.178 11.5473C141.82 11.5015 141.459 11.4792 141.098 11.4807C138.964 11.5239 136.898 12.2377 135.192 13.5209C134.639 13.9281 134.109 14.3647 133.603 14.8287C133.603 14.8287 133.527 14.8953 132.847 15.5896C132.213 16.2493 131.632 16.9568 131.107 17.7059C130.582 17.5678 130.05 17.4613 129.513 17.3873C130.338 15.1564 131.307 12.9816 132.414 10.8768L132.519 10.6913C133.109 9.61176 134.098 7.81412 136.281 6.88676C136.533 6.77738 136.756 6.67751 136.994 6.58715C138.135 6.11159 139.31 5.63602 139.496 4.39479C139.547 4.14828 139.545 3.89378 139.491 3.64792C139.437 3.40206 139.331 3.1704 139.182 2.96808C139.069 2.83679 138.929 2.73174 138.771 2.66027C138.613 2.5888 138.442 2.55265 138.269 2.55434C138.035 2.55839 137.805 2.61187 137.593 2.71128C136.611 3.05461 135.57 3.20165 134.531 3.14404C132.751 3.10627 130.974 2.97292 129.209 2.74457C127.968 2.61141 126.893 2.49251 126.165 2.49251C120.264 2.49251 116.178 5.50286 115.437 10.3489C115.289 11.3286 115.089 13.7682 116.388 15.2996C116.724 15.6812 117.141 15.9837 117.608 16.1851C118.075 16.3866 118.581 16.4821 119.089 16.4647C119.627 16.448 120.151 16.2868 120.605 15.9982C121.059 15.7095 121.428 15.3039 121.671 14.824L122.147 14.0013L121.367 13.578C119.983 12.9122 118.68 11.3476 118.904 9.86857C119.184 7.9663 121.757 7.80461 125.894 7.68571C126.845 7.65718 127.877 7.62389 128.924 7.55731C128.07 8.22102 127.266 8.94579 126.517 9.7259C125.186 11.2382 123.883 13.7302 122.527 17.335C112.983 18.2861 105.526 24.5446 104.698 32.4152C104.576 33.3779 104.66 34.3555 104.944 35.2834C105.227 36.2114 105.704 37.0687 106.344 37.7987C106.964 38.4876 107.721 39.0387 108.567 39.4164C109.414 39.794 110.33 39.9898 111.256 39.991H111.542C121.091 39.563 125.885 27.2173 128.51 20.0933C128.933 20.0933 129.318 20.1361 129.656 20.1646C129.005 21.3968 128.525 22.712 128.229 24.0738C128.095 24.6631 128.013 25.263 127.982 25.8667C127.901 27.5407 128.286 28.8295 129.128 29.714C129.541 30.1204 130.033 30.4367 130.574 30.643C131.115 30.8493 131.693 30.941 132.272 30.9124C133.813 30.9124 135.282 30.1087 136.794 28.4062C136.872 29.054 137.137 29.6652 137.555 30.1658C137.789 30.4211 138.074 30.6232 138.393 30.7586C138.711 30.894 139.055 30.9594 139.4 30.9505H139.586C142.121 30.8078 143.947 29.2908 145.431 27.5359C146.135 29.6902 147.956 30.9172 150.581 30.9172C152.389 30.836 154.153 30.3379 155.736 29.462C156.289 29.1683 156.821 28.8378 157.329 28.4728C157.341 28.9841 157.531 29.4752 157.867 29.8614C158.099 30.1003 158.379 30.2864 158.689 30.407C159 30.5277 159.332 30.58 159.664 30.5605C160.816 30.5303 161.954 30.3134 163.036 29.9185L163.45 29.7568L163.564 29.324C164.324 26.7048 165.315 24.1584 166.527 21.715C167.478 22.8468 167.559 24.6635 167.64 26.7132C167.673 27.6072 167.711 28.5346 167.825 29.4524C168.215 32.5817 169.252 35.6871 174.264 37.2042C174.51 37.2877 174.766 37.3373 175.025 37.3516H175.158C175.478 37.3768 175.796 37.2821 176.05 37.0862C176.304 36.8902 176.476 36.6068 176.533 36.2911C176.585 36.0904 176.584 35.8795 176.53 35.6793C176.476 35.479 176.37 35.2965 176.224 35.1498C174.749 33.7801 173.955 31.9872 173.732 29.5C173.67 28.8009 173.627 28.0733 173.584 27.3362C173.366 23.4508 173.109 18.6808 168.743 17.8248C169.253 17.0812 169.824 16.3813 170.45 15.7323C170.4 16.0316 170.411 16.338 170.482 16.633C170.553 16.9281 170.683 17.2057 170.864 17.4491C171.127 17.7666 171.456 18.0232 171.828 18.2014C172.2 18.3796 172.606 18.475 173.018 18.4811H173.308C175.035 18.4811 176.5 17.4396 177.322 15.6277C177.52 15.2039 177.605 14.7363 177.57 14.27C177.535 13.8037 177.381 13.3541 177.122 12.9645C176.728 12.4094 176.208 11.9555 175.605 11.6398C175.001 11.324 174.332 11.1555 173.651 11.1478H173.565C171.959 11.2253 170.424 11.8361 169.204 12.8837C169.723 11.5626 170.148 10.2071 170.479 8.82708C170.687 7.88666 170.676 6.91084 170.446 5.9755C170.216 5.04016 169.773 4.1705 169.152 3.43414C168.312 2.40037 167.26 1.55888 166.067 0.966525C164.875 0.374174 163.568 0.0447603 162.237 0.000539487ZM134.545 26.8178C134.536 26.567 134.545 26.3158 134.573 26.0664C134.787 24.031 136.029 20.2169 137.66 17.5965C138.199 16.7545 138.887 16.0179 139.691 15.4232C140.331 14.9077 141.101 14.5787 141.916 14.4721C142.167 14.4674 142.412 14.5479 142.611 14.7003C142.805 14.8174 142.946 15.0048 143.005 15.2235L142.953 15.7941L142.563 15.8655C140.837 16.2031 139.886 16.7691 138.816 19.223C138.34 20.3073 137.489 22.6376 137.317 23.1845C136.366 25.2627 135.168 26.4373 134.545 26.7988V26.8178ZM112.236 37.0948C111.783 37.0871 111.337 36.9835 110.927 36.7909C110.517 36.5982 110.153 36.3209 109.858 35.9772C109.44 35.4882 109.128 34.9169 108.944 34.3001C108.76 33.6833 108.707 33.0347 108.788 32.3962C109.264 27.9734 113.877 21.6151 121.467 20.3739C121.405 20.5736 121.338 20.7828 121.267 20.9969C119.859 25.4054 116.136 37.0948 112.236 37.0948ZM20.2993 2.1834C15.8622 2.1834 11.4395 4.46612 7.84893 8.61307C4.6864 12.2559 2.53684 16.9498 2.09456 21.1633C1.73788 24.5493 2.39417 27.2791 3.99683 29.053C5.27135 30.4797 7.04997 31.1835 9.2899 31.1835C11.5298 31.1835 14.0456 30.0517 16.8181 27.7356C16.9641 28.4759 17.3132 29.1609 17.8263 29.714C18.2411 30.1228 18.7366 30.4406 19.2812 30.6469C19.8257 30.8533 20.4074 30.9437 20.9889 30.9124C22.5345 30.9124 23.9992 30.1087 25.5115 28.4062C25.5905 29.0359 25.848 29.63 26.2534 30.1182C26.5056 30.3896 26.8132 30.6035 27.1554 30.7455C27.4976 30.8874 27.8663 30.9541 28.2365 30.941C29.8772 30.941 31.8651 29.8139 33.6818 28.4347C32.3692 32.3819 31.2469 36.3149 31.1517 37.2232C31.0855 37.5865 31.0984 37.9597 31.1895 38.3176C31.2806 38.6754 31.4477 39.0094 31.6796 39.2967C31.9094 39.5356 32.1883 39.7218 32.497 39.8425C32.8057 39.9632 33.1369 40.0155 33.4678 39.9958C34.6805 39.9728 35.8828 39.7676 37.0345 39.3871L37.6004 39.1635V38.5501C37.5576 36.6953 38.2853 33.5423 39.5693 29.9137C40.0936 30.3102 40.7386 30.5134 41.3955 30.4892C45.3427 30.4892 48.8809 26.5515 50.9068 22.8373L50.9496 22.785C51.0543 22.6423 51.1494 22.5187 51.2255 22.395C51.5203 21.9575 52.7806 21.111 54.0503 20.3168C52.0767 24.8157 51.2635 26.7322 51.1969 27.4503C51.1446 27.8759 51.1828 28.3077 51.309 28.7175C51.4353 29.1273 51.6466 29.5057 51.9293 29.8281C52.2904 30.2003 52.7264 30.4915 53.2084 30.6826C53.6905 30.8736 54.2076 30.96 54.7256 30.9362C56.8134 30.9362 59.1294 29.2432 60.7035 27.8165C60.8602 28.5266 61.2014 29.1827 61.6927 29.7188C62.1074 30.1245 62.6017 30.4401 63.1443 30.6455C63.687 30.851 64.2662 30.9418 64.8457 30.9124C66.3866 30.9124 67.8561 30.1087 69.3684 28.4062C69.452 29.0396 69.7161 29.6356 70.1293 30.123C70.3809 30.3937 70.6878 30.6073 71.0291 30.7492C71.3704 30.8912 71.7382 30.9582 72.1076 30.9457C73.6057 30.9457 75.5745 29.909 77.6242 28.0923C77.6702 28.7433 77.9311 29.3606 78.3661 29.8472C78.7272 30.2193 79.1632 30.5106 79.6453 30.7016C80.1273 30.8926 80.6445 30.9791 81.1625 30.9552C82.8364 30.9552 84.7958 29.8377 86.5078 28.43C86.4643 29.0238 86.6517 29.6116 87.031 30.0707C87.2442 30.2906 87.5026 30.4619 87.7882 30.5727C88.0739 30.6835 88.3801 30.7313 88.6859 30.7127C89.5896 30.6514 90.4792 30.4558 91.3253 30.1325L91.8009 29.9803L92.2765 29.8424L92.4049 29.3668C93.4416 25.6717 96.9513 17.6774 99.467 16.3268C99.3054 16.8023 99.0438 17.3873 98.7775 18.015C97.8263 20.2645 96.4995 23.3462 96.2094 26.6276C95.8623 30.5938 96.5708 31.8588 98.0689 34.1796C98.3542 34.6124 99.8665 36.2578 100.803 36.2578C101.133 36.239 101.452 36.1297 101.724 35.9418C101.995 35.7538 102.21 35.4946 102.344 35.1926L102.601 34.7455L102.33 34.3032C101.596 33.2369 101.233 31.9583 101.298 30.6651C101.498 28.2873 102.682 25.2817 103.828 22.3665C104.893 19.6558 105.901 17.0924 106.115 15.076C106.172 14.6896 106.144 14.2956 106.035 13.9207C105.926 13.5458 105.738 13.1986 105.483 12.9027C104.865 12.2274 103.914 11.8897 102.649 11.8897C100.746 11.8897 98.6586 13.0073 96.6802 15.0285C96.7175 13.2297 96.1064 11.4776 94.9587 10.0921C93.9838 8.90792 92.7473 8.16604 91.6297 8.09946H91.4823C91.1143 8.08603 90.7535 8.20404 90.4646 8.43235C90.5984 8.01143 90.6425 7.56715 90.5942 7.12812C90.5459 6.68909 90.4061 6.26505 90.184 5.88331C89.9924 5.58397 89.7394 5.32872 89.4418 5.13442C89.1442 4.94012 88.8088 4.81121 88.4577 4.75622C88.2752 4.72761 88.0907 4.7133 87.906 4.71342C85.8991 4.71342 84.382 6.46826 83.9207 8.20408C83.7869 8.625 83.7427 9.06929 83.7911 9.50832C83.8394 9.94735 83.9791 10.3714 84.2013 10.7531C84.3989 11.049 84.6571 11.2996 84.9588 11.4881C85.2605 11.6767 85.5989 11.799 85.9514 11.8469C86.1323 11.8753 86.3152 11.8897 86.4983 11.8897C87.1891 11.8525 87.8595 11.6422 88.4479 11.2783C89.0362 10.9143 89.5236 10.4083 89.8653 9.80675L89.8273 9.99697L90.417 10.3013C91.5584 10.891 91.7914 12.5365 91.4347 13.8586C90.9306 15.6943 89.8986 18.2623 88.8999 20.7543C88.6241 21.4344 88.353 22.1049 88.0962 22.7565C86.9053 24.0795 85.5828 25.2778 84.149 26.3327C84.5723 25.1581 85.1002 23.7837 85.6423 22.4521C86.4453 20.5772 87.1345 18.6556 87.7063 16.6977C87.849 16.2235 87.891 15.7247 87.8295 15.2333C87.7681 14.7419 87.6046 14.2688 87.3496 13.8443C87.079 13.4758 86.7354 13.1669 86.3402 12.937C85.945 12.7071 85.5067 12.561 85.0526 12.508C84.5491 12.4002 84.0361 12.3429 83.5213 12.3368C83.3691 12.3368 83.2169 12.3368 83.0695 12.3368C82.7066 12.3871 82.3556 12.5014 82.0327 12.6744L81.3241 13.0549L81.6428 13.792C81.7637 14.0648 81.8469 14.3528 81.8901 14.648C81.8362 15.158 81.7047 15.6568 81.5001 16.127C81.0531 17.1828 79.9307 19.8698 79.0557 22.2809C77.8365 23.6892 76.5053 24.9965 75.0752 26.1901C75.7172 24.1641 76.635 21.577 77.5767 19.1374L78.2425 17.5775C78.3677 17.3606 78.4336 17.1146 78.4336 16.8642C78.4336 16.6137 78.3677 16.3677 78.2425 16.1508C78.1699 16.0418 78.0799 15.9454 77.9761 15.8655C78.1638 15.7497 78.3166 15.5854 78.4184 15.3899C78.7513 14.7717 78.7894 13.4353 77.4958 12.4652C76.7048 11.9137 75.78 11.5851 74.8184 11.514C74.4604 11.4682 74.0998 11.4459 73.7388 11.4475C71.6046 11.4906 69.5382 12.2044 67.8323 13.4876C67.2636 13.9 66.719 14.3446 66.2011 14.8192C66.2011 14.8192 66.125 14.8858 65.4402 15.5801C63.3514 17.795 61.8191 20.4748 60.9698 23.3985C59.9967 24.4707 58.9287 25.4528 57.7788 26.3327C58.4065 24.7396 59.429 22.4426 60.5085 20.0267C61.4597 17.8676 62.4631 15.6372 63.2763 13.6779C63.2818 13.6654 63.2903 13.6545 63.3011 13.6461C63.312 13.6378 63.3247 13.6324 63.3382 13.6303H64.7649C65.2414 13.6564 65.7114 13.5111 66.09 13.2206C66.4686 12.9301 66.7307 12.5137 66.8288 12.0467C66.8578 11.8698 66.8478 11.6888 66.7993 11.5162C66.7508 11.3437 66.6651 11.1838 66.5482 11.048C66.4116 10.8992 66.2444 10.7817 66.058 10.7037C65.8717 10.6257 65.6706 10.589 65.4687 10.5962H64.5176C64.5842 10.4155 64.665 10.2205 64.7316 10.054L64.879 9.66883L65.0264 9.29313C65.4402 8.22786 65.7921 7.30526 66.0346 6.64898C66.1131 6.46494 66.1446 6.26431 66.1263 6.0651C66.1081 5.86588 66.0406 5.67432 65.93 5.50761C65.7696 5.30441 65.564 5.14143 65.3295 5.03163C65.0951 4.92183 64.8382 4.86824 64.5794 4.87511C63.7139 4.87511 63.2431 5.5837 62.9339 6.05452C62.8816 6.13061 62.8341 6.2067 62.7817 6.27803C61.7654 7.58903 60.5878 8.76663 59.2768 9.78297C58.6723 10.2702 57.9069 10.5129 57.132 10.463C56.7516 10.4868 56.2807 10.5201 55.7053 10.6009C55.3184 10.6452 54.9566 10.8153 54.6757 11.0851C54.3948 11.3549 54.2102 11.7094 54.1502 12.0942C54.1145 12.2942 54.122 12.4994 54.172 12.6962C54.222 12.8931 54.3135 13.077 54.4403 13.2356C54.5438 13.3545 54.6717 13.4496 54.8153 13.5144C54.959 13.5793 55.1149 13.6123 55.2725 13.6113H56.937C56.6374 14.3294 56.3093 15.1046 56.0144 15.7941C55.1679 16.1223 54.0075 16.5931 52.909 17.1543C52.909 17.0306 52.9423 16.907 52.9565 16.7881C53.1325 15.1046 52.8376 13.8253 52.0815 12.9835C51.7737 12.6548 51.3984 12.3966 50.9814 12.2267C50.5643 12.0568 50.1155 11.9791 49.6656 11.9991C48.4434 11.9991 46.6981 12.4271 44.7007 14.201C44.6097 13.8717 44.4474 13.5664 44.2251 13.3069C43.6544 12.6602 42.708 12.2702 41.4716 12.1989H41.1624C39.1175 12.1989 37.1011 13.3735 36.4068 14.4626C36.282 14.674 36.2018 14.9087 36.1712 15.1523C36.1406 15.3959 36.1602 15.6431 36.2288 15.8788C36.2974 16.1145 36.4136 16.3337 36.5702 16.5228C36.7267 16.7119 36.9204 16.8669 37.1391 16.9783L37.7812 17.2874C36.9525 19.1178 36.2176 20.9892 35.5793 22.8944C34.2126 24.2541 32.7152 25.4759 31.1089 26.542C31.7462 24.497 32.7211 21.7245 33.7055 19.1754C33.9386 18.6285 34.1811 18.1054 34.338 17.7059C34.469 17.4763 34.5378 17.2165 34.5378 16.9522C34.5378 16.6878 34.469 16.428 34.338 16.1984C34.264 16.0877 34.1724 15.9897 34.067 15.9083C34.2657 15.7958 34.43 15.6314 34.5425 15.4327C34.9325 14.7669 35.0181 13.4115 33.6818 12.4081C32.8897 11.8587 31.9655 11.5303 31.0043 11.457C30.6521 11.4205 30.2979 11.4062 29.9438 11.4142C27.7731 11.4691 25.6755 12.21 23.9517 13.5304C23.3991 13.9376 22.8689 14.3742 22.3633 14.8383C22.3633 14.8383 22.2872 14.9048 21.6071 15.5992C19.4018 17.9103 17.8109 20.7372 16.9798 23.8217C14.9444 25.9713 12.8139 27.2506 11.273 27.2506C11.0368 27.2664 10.8 27.2289 10.5802 27.1408C10.3604 27.0527 10.1632 26.9163 10.0033 26.7417C9.36123 26.0284 9.12345 24.5208 9.3327 22.4949C10.0698 15.4993 16.1381 5.18423 20.6227 5.18898H20.6512C20.0247 5.67092 19.5332 6.30651 19.2245 7.03419C19.0044 7.48828 18.8937 7.98757 18.9011 8.49212C18.9086 8.99668 19.034 9.49249 19.2673 9.93991C19.4715 10.3351 19.7678 10.6754 20.1312 10.9319C20.4945 11.1885 20.9143 11.3539 21.3551 11.4142C21.5125 11.4374 21.6715 11.4485 21.8306 11.4475C23.3715 11.4475 25.3546 10.4107 26.3105 8.11848C26.5183 7.57168 26.5888 6.98226 26.5158 6.40187C26.4429 5.82148 26.2287 5.26785 25.892 4.78951C24.8838 3.2344 23.0005 2.29753 20.7225 2.2262H20.2993V2.1834ZM67.1189 26.8178C67.1098 26.567 67.1194 26.3158 67.1475 26.0664C67.3615 24.031 68.6027 20.2169 70.2339 17.5965C70.7713 16.7533 71.4598 16.0166 72.2646 15.4232C72.9 14.9084 73.6653 14.5793 74.476 14.4721C74.7238 14.4665 74.9658 14.5472 75.1608 14.7003C75.3532 14.8192 75.494 15.0058 75.5555 15.2235L75.5032 15.7941L75.137 15.8655C73.4107 16.2031 72.4596 16.7691 71.3848 19.223C70.9092 20.3025 70.0627 22.6376 69.8867 23.1845C68.9641 25.2627 67.7419 26.4373 67.1189 26.7988V26.8178ZM23.2621 26.8178C23.253 26.567 23.2625 26.3158 23.2906 26.0664C23.5046 24.031 24.7458 20.2169 26.377 17.5965C26.9159 16.7545 27.6041 16.0179 28.4077 15.4232C29.0629 14.9107 29.8489 14.5926 30.6762 14.5054C30.9492 14.4977 31.217 14.5814 31.4371 14.7431C31.6305 14.8609 31.7716 15.048 31.8318 15.2663L31.7843 15.7941C31.6226 15.7941 31.4514 15.8512 31.2801 15.8845C29.5538 16.2222 28.6027 16.7881 27.5327 19.242C27.0571 20.3263 26.2058 22.6566 26.0346 23.2035C25.1073 25.2817 23.8851 26.4564 23.2621 26.8178ZM40.8914 26.3898C41.2948 24.7758 41.8937 23.2171 42.6748 21.7483C44.0063 19.242 45.7659 17.102 46.622 16.4552C46.6261 16.5344 46.6261 16.6138 46.622 16.693C46.4603 18.2623 45.5139 21.0682 44.3773 23.3509C42.8697 26.4041 41.7141 27.2981 41.2671 27.3647C41.2469 27.3396 41.2294 27.3125 41.2148 27.2839C41.0468 27.0055 40.9413 26.6939 40.9056 26.3708L40.8914 26.3898Z" fill="#181716"/>
</g>
<defs>
<filter id="filter0_d_2524_5830" x="0" y="0" width="179.578" height="44" filterUnits="userSpaceOnUse" color-interpolation-filters="sRGB">
<feFlood flood-opacity="0" result="BackgroundImageFix"/>
<feColorMatrix in="SourceAlpha" type="matrix" values="0 0 0 0 0 0 0 0 0 0 0 0 0 0 0 0 0 0 127 0" result="hardAlpha"/>
<feOffset dy="2"/>
<feGaussianBlur stdDeviation="1"/>
<feComposite in2="hardAlpha" operator="out"/>
<feColorMatrix type="matrix" values="0 0 0 0 0.0941176 0 0 0 0 0.0117647 0 0 0 0 0.00784314 0 0 0 1 0"/>
<feBlend mode="normal" in2="BackgroundImageFix" result="effect1_dropShadow_2524_5830"/>
<feBlend mode="normal" in="SourceGraphic" in2="effect1_dropShadow_2524_5830" result="shape"/>
</filter>
</defs>
</svg>
